#!OML:ASF E:\CV Data\Top Level 1\Subject 1\Session 1\player.ASF
:FULLY-SPECIFIED
:DEGREES
652
root 3.19006 16.4003 4.96508 30.9315 11.5137 4.30854
lowerback 25.2628 7.8168 11.921
upperback 2.41777 13.9455 5.16683
thorax -9.6718 6.09483 -5.16406
lowerneck -4.99195 -14.4433 -13.7259
upperneck -16.2194 -17.7552 15.1651
head -1.37728 -8.81457 6.3283
rclavicle -2.25819e-013 3.81667e-014
rhumerus 60.3043 -6.11184 -52.3828
rradius 28.2184
rwrist -37.3739
rhand -21.1025 -4.50208
rfingers 7.12502
rthumb 5.27537 -34.4164
lclavicle -2.25819e-013 3.81667e-014
lhumerus -44.2931 -1.54777 85.4488
lradius 50.3341
lwrist 10.3236
lhand -19.8324 12.0514
lfingers 7.12502
lthumb 6.50161 41.9316
rfemur -3.05384 -11.9012 26.238
rtibia 30.2975
rfoot 8.94434 -11.7945
rtoes 2.61393
lfemur -65.009 -4.9586 -36.1641
ltibia 29.6873
lfoot 11.2055 -28.8382
ltoes 20.5786
653
root 3.16123 16.4353 5.00536 30.8568 11.3374 4.05776
lowerback 25.1479 7.75947 11.4695
upperback 2.40328 13.7157 4.97126
thorax -9.711 6.00355 -5.07383
lowerneck -5.01266 -14.3589 -13.8886
upperneck -16.0453 -17.6086 15.5948
head -1.27519 -8.74738 6.47158
rclavicle 4.77083e-014 -9.54166e-015
rhumerus 58.6938 -4.83295 -52.5414
rradius 28.3141
rwrist -36.5544
rhand -20.9317 -4.08654
rfingers 7.12502
rthumb 5.44027 -33.9967
lclavicle 4.77083e-014 -9.54166e-015
lhumerus -44.1805 -2.70738 85.3994
lradius 49.3215
lwrist 8.12549
lhand -17.5567 11.0124
lfingers 7.12502
lthumb 8.69811 40.8132
rfemur -3.17957 -11.9873 26.1328
rtibia 30.5027
rfoot 9.89979 -10.8351
rtoes 1.85069
lfemur -64.8324 -4.64893 -35.7953
ltibia 29.5278
lfoot 11.1359 -28.7598
ltoes 20.6358
654
root 3.13238 16.4677 5.04388 30.7526 11.1605 3.81936
lowerback 25.0584 7.70874 11.0126
upperback 2.39245 13.4971 4.7783
thorax -9.75822 5.91672 -4.98317
lowerneck -5.04437 -14.2815 -14.0558
upperneck -15.9156 -17.4674 16.0386
head -1.18247 -8.6823 6.62183
rclavicle -5.08889e-014 9.85972e-014
rhumerus 57.0908 -3.59353 -52.8488
rradius 28.1405
rwrist -34.391
rhand -20.7125 -3.8107
rfingers 7.12502
rthumb 5.65193 -33.7153
lclavicle -5.08889e-014 9.85972e-014
lhumerus -44.0449 -3.85285 85.358
lradius 48.3792
lwrist 5.82897
lhand -15.3387 9.83756
lfingers 7.12502
lthumb 10.8381 39.5379
rfemur -3.31919 -11.9718 26.0245
rtibia 30.8164
rfoot 10.7243 -9.91259
rtoes 1.15395
lfemur -64.6421 -4.41249 -35.366
ltibia 29.4009
lfoot 11.017 -28.5927
ltoes 20.5551
655
root 3.10392 16.4975 5.08066 30.62 10.9781 3.58399
lowerback 24.9838 7.66754 10.5559
upperback 2.39254 13.2925 4.59119
thorax -9.79877 5.83703 -4.88969
lowerneck -5.08139 -14.2125 -14.2408
upperneck -15.8345 -17.3323 16.5081
head -1.09846 -8.61984 6.78481
rclavicle -1.01778e-013 6.36111e-014
rhumerus 55.5038 -2.41947 -53.3111
rradius 27.7412
rwrist -31.3052
rhand -20.467 -3.66702
rfingers 7.12502
rthumb 5.889 -33.5652
lclavicle -1.01778e-013 6.36111e-014
lhumerus -43.8694 -4.94961 85.3229
lradius 47.5154
lwrist 3.50392
lhand -13.2553 8.60865
lfingers 7.12502
lthumb 12.8471 38.1933
rfemur -3.47791 -11.8581 25.9184
rtibia 31.238
rfoot 11.4012 -9.05817
rtoes 0.571144
lfemur -64.4423 -4.24331 -34.8695
ltibia 29.3062
lfoot 10.8478 -28.3338
ltoes 20.3178
656
root 3.07624 16.5252 5.11562 30.4575 10.7903 3.34647
lowerback 24.9175 7.63103 10.1019
upperback 2.40688 13.0953 4.41319
thorax -9.82668 5.762 -4.78813
lowerneck -5.11196 -14.1484 -14.4073
upperneck -15.8145 -17.2022 16.9724
head -1.03536 -8.56093 6.94847
rclavicle 9.54166e-015 -7.63333e-014
rhumerus 53.942 -1.33215 -53.9485
rradius 27.1914
rwrist -27.8921
rhand -20.1688 -3.61386
rfingers 7.12502
rthumb 6.17689 -33.5038
lclavicle 9.54166e-015 -7.63333e-014
lhumerus -43.6582 -5.96118 85.2846
lradius 46.751
lwrist 1.21716
lhand -11.3436 7.40733
lfingers 7.12502
lthumb 14.6895 36.8669
rfemur -3.65655 -11.6583 25.8191
rtibia 31.7639
rfoot 11.908 -8.30879
rtoes 0.111254
lfemur -64.2304 -4.13485 -34.3061
ltibia 29.2415
lfoot 10.6354 -27.9862
ltoes 19.9318
657
root 3.04957 16.551 5.14853 30.2717 10.598 3.1004
lowerback 24.8495 7.59769 9.65584
upperback 2.43643 12.9039 4.24625
thorax -9.83518 5.69128 -4.67707
lowerneck -5.15269 -14.0889 -14.5571
upperneck -15.8256 -17.077 17.4196
head -0.982969 -8.50444 7.10663
rclavicle -7.31528e-014 -1.90833e-014
rhumerus 52.4026 -0.332543 -54.7253
rradius 26.5919
rwrist -24.847
rhand -19.8261 -3.58043
rfingers 7.12502
rthumb 6.50765 -33.4604
lclavicle -7.31528e-014 -1.90833e-014
lhumerus -43.4073 -6.85824 85.2362
lradius 46.0926
lwrist -0.971655
lhand -9.60741 6.32549
lfingers 7.12502
lthumb 16.3617 35.6553
rfemur -3.8639 -11.3941 25.7324
rtibia 32.3872
rfoot 12.2065 -7.67451
rtoes -0.142275
lfemur -64.0132 -4.06755 -33.6905
ltibia 29.2022
lfoot 10.3983 -27.5767
ltoes 19.4419
658
root 3.0239 16.5752 5.17888 30.0732 10.408 2.84562
lowerback 24.7666 7.56013 9.2154
upperback 2.47294 12.7084 4.09167
thorax -9.82882 5.61983 -4.55022
lowerneck -5.19315 -14.0243 -14.6809
upperneck -15.8425 -16.9484 17.8334
head -0.939358 -8.44636 7.25335
rclavicle 8.90555e-014 -4.45278e-014
rhumerus 50.8684 0.634624 -55.5698
rradius 26.0478
rwrist -22.7596
rhand -19.5009 -3.52982
rfingers 7.12502
rthumb 6.82166 -33.3999
lclavicle 8.90555e-014 -4.45278e-014
lhumerus -43.1249 -7.59483 85.1562
lradius 45.5287
lwrist -3.01212
lhand -8.02208 5.38619
lfingers 7.12502
lthumb 17.8876 34.5836
rfemur -4.11321 -11.0835 25.6664
rtibia 33.0977
rfoot 12.2746 -7.15501
rtoes -0.202404
lfemur -63.7986 -4.02872 -33.0407
ltibia 29.1831
lfoot 10.1512 -27.1311
ltoes 18.8814
